# xmcd
# 
# Track frame offsets:
#     150
#     19541
#     41402
#     67237
#     78706
#     94074
#     142524
#     181738
#     217711
#     242539
#     280019
#     298948
# 
# Disc length: 4720
# 
# Revision: 2
# Processed by: cddbd v1.5.2PL0 Copyright (c) Steve Scherf et al.
# Submitted via: fre:ac v1.0.31
# 
DISCID=9d126e0c
DTITLE=Weather Report - Forecast - Tomorrow - Disc 1
DYEAR=2006
DGENRE=Jazz
TTITLE0=In A Silent Way
TTITLE1=Super Nova
TTITLE2=Experience In E
TTITLE3=Milky Way
TTITLE4=Tears
TTITLE5=Eurydice (Full Version)
TTITLE6=Orange Lady
TTITLE7=Unknown Soldier
TTITLE8=Directions
TTITLE9=Surucucu
TTITLE10=Second Sunday In August
TTITLE11=125th Street Congress
EXTD=
EXTT0=
EXTT1=
EXTT2=
EXTT3=
EXTT4=
EXTT5=
EXTT6=
EXTT7=
EXTT8=
EXTT9=
EXTT10=
EXTT11=
PLAYORDER=
